<svg version="1.1" id="Layer_1" xmlns="http://www.w3.org/2000/svg" xmlns:xlink="http://www.w3.org/1999/xlink" x="0px" y="0px"
	 width="100%" viewBox="0 0 199 186" enable-background="new 0 0 199 186" xml:space="preserve">
<path fill="#262222" opacity="1.000000" stroke="none" 
	d="
M123.000000,187.000000 
	C82.026314,187.000000 41.552624,187.000000 1.039469,187.000000 
	C1.039469,125.066612 1.039469,63.133198 1.039469,1.099890 
	C67.223511,1.099890 133.447220,1.099890 199.835464,1.099890 
	C199.835464,62.999645 199.835464,124.999786 199.835464,187.000000 
	C174.466827,187.000000 148.983414,187.000000 123.000000,187.000000 
M33.862362,167.792984 
	C47.144390,167.792984 60.426418,167.792984 73.877190,167.792984 
	C73.877190,162.291687 73.877190,157.080902 73.877190,151.323853 
	C65.684219,151.323853 57.777634,151.323853 49.704445,151.323853 
	C49.704445,145.673447 49.704445,140.571625 49.704445,135.030670 
	C55.090778,135.030670 60.351860,135.030670 65.719437,135.030670 
	C65.719437,129.359009 65.719437,124.129868 65.719437,118.549301 
	C60.319206,118.549301 55.204483,118.549301 49.596539,118.549301 
	C49.596539,107.589439 49.509640,96.975380 49.741325,86.368286 
	C49.762684,85.390457 51.661835,84.085838 52.945919,83.558746 
	C71.373619,75.994598 79.773582,54.794571 70.126778,37.068111 
	C63.675682,25.213923 47.131325,16.275206 31.385618,21.554308 
	C18.921228,25.733278 8.604694,39.413773 8.485069,51.392262 
	C8.411352,58.773823 10.351310,65.376968 14.553769,71.441727 
	C19.105249,78.010178 25.330149,82.148308 33.201756,84.572128 
	C33.201756,112.168747 33.201756,139.641342 33.862362,167.792984 
M90.702812,50.518166 
	C90.702812,62.136635 90.702812,73.755104 90.702812,85.576035 
	C118.290802,85.576035 145.364807,85.576035 172.672180,85.576035 
	C172.672180,71.917900 172.672180,58.516479 172.672180,44.936825 
	C145.336533,44.936825 118.257790,44.936825 90.702835,44.936825 
	C90.702835,46.598602 90.702835,48.058491 90.702812,50.518166 
M144.500015,102.073906 
	C126.739494,102.073906 108.978981,102.073906 90.963608,102.073906 
	C90.963608,115.887161 90.963608,129.267395 90.963608,142.869080 
	C118.251328,142.869080 145.412781,142.869080 172.637665,142.869080 
	C172.637665,129.192581 172.637665,115.814697 172.637665,102.073906 
	C163.401260,102.073906 154.450653,102.073906 144.500015,102.073906 
z"/>
<path fill="#FAFAFA" opacity="1.000000" stroke="none" 
	d="
M33.532059,167.453461 
	C33.201756,139.641342 33.201756,112.168747 33.201756,84.572128 
	C25.330149,82.148308 19.105249,78.010178 14.553769,71.441727 
	C10.351310,65.376968 8.411352,58.773823 8.485069,51.392262 
	C8.604694,39.413773 18.921228,25.733278 31.385618,21.554308 
	C47.131325,16.275206 63.675682,25.213923 70.126778,37.068111 
	C79.773582,54.794571 71.373619,75.994598 52.945919,83.558746 
	C51.661835,84.085838 49.762684,85.390457 49.741325,86.368286 
	C49.509640,96.975380 49.596539,107.589439 49.596539,118.549301 
	C55.204483,118.549301 60.319206,118.549301 65.719437,118.549301 
	C65.719437,124.129868 65.719437,129.359009 65.719437,135.030670 
	C60.351860,135.030670 55.090778,135.030670 49.704445,135.030670 
	C49.704445,140.571625 49.704445,145.673447 49.704445,151.323853 
	C57.777634,151.323853 65.684219,151.323853 73.877190,151.323853 
	C73.877190,157.080902 73.877190,162.291687 73.877190,167.792984 
	C60.426418,167.792984 47.144390,167.792984 33.532059,167.453461 
M43.926281,36.408211 
	C31.243034,34.165169 20.494337,48.268242 26.724672,60.105293 
	C30.421522,67.128967 37.842972,70.517044 44.919258,68.872139 
	C51.982758,67.230202 57.230534,62.063068 57.758503,54.051506 
	C58.323975,45.470928 54.711842,40.822384 43.926281,36.408211 
z"/>
<path fill="#FDFDFD" opacity="1.000000" stroke="none" 
	d="
M90.702820,50.018272 
	C90.702835,48.058491 90.702835,46.598602 90.702835,44.936825 
	C118.257790,44.936825 145.336533,44.936825 172.672180,44.936825 
	C172.672180,58.516479 172.672180,71.917900 172.672180,85.576035 
	C145.364807,85.576035 118.290802,85.576035 90.702812,85.576035 
	C90.702812,73.755104 90.702812,62.136635 90.702820,50.018272 
z"/>
<path fill="#FEFEFE" opacity="1.000000" stroke="none" 
	d="
M145.000031,102.073906 
	C154.450653,102.073906 163.401260,102.073906 172.637665,102.073906 
	C172.637665,115.814697 172.637665,129.192581 172.637665,142.869080 
	C145.412781,142.869080 118.251328,142.869080 90.963608,142.869080 
	C90.963608,129.267395 90.963608,115.887161 90.963608,102.073906 
	C108.978981,102.073906 126.739494,102.073906 145.000031,102.073906 
z"/>
<path fill="#2E2A2A" opacity="1.000000" stroke="none" 
	d="
M44.328804,36.448372 
	C54.711842,40.822384 58.323975,45.470928 57.758503,54.051506 
	C57.230534,62.063068 51.982758,67.230202 44.919258,68.872139 
	C37.842972,70.517044 30.421522,67.128967 26.724672,60.105293 
	C20.494337,48.268242 31.243034,34.165169 44.328804,36.448372 
z"/>
</svg>