<svg version="1.1" id="Layer_1" xmlns="http://www.w3.org/2000/svg" xmlns:xlink="http://www.w3.org/1999/xlink" x="0px" y="0px"
	 width="100%" viewBox="0 0 166 175" enable-background="new 0 0 166 175" xml:space="preserve">
<path fill="#252121" opacity="1.000000" stroke="none" 
	d="
M99.000000,176.000000 
	C66.000008,176.000000 33.500008,176.000000 1.000009,176.000000 
	C1.000006,117.666679 1.000006,59.333355 1.000003,1.000024 
	C56.333317,1.000016 111.666634,1.000016 166.999969,1.000008 
	C166.999969,59.333309 166.999969,117.666618 166.999985,175.999969 
	C144.500000,176.000000 122.000000,176.000000 99.000000,176.000000 
M91.157982,150.728424 
	C93.465164,147.948608 97.231918,145.432861 97.792007,142.336975 
	C99.189430,134.612778 99.484863,126.618752 99.349068,118.748100 
	C99.322456,117.205963 95.270973,114.451576 93.241486,114.595322 
	C91.310341,114.732094 88.493416,117.687737 88.024757,119.832108 
	C87.154762,123.812828 87.775551,128.107086 87.659027,132.267532 
	C87.466370,139.146484 84.646423,142.081802 77.899239,142.119583 
	C63.075005,142.202591 48.249683,142.201492 33.425426,142.120682 
	C26.818573,142.084671 23.892902,139.220520 23.880821,132.669922 
	C23.821220,100.355507 23.823019,68.040878 23.879232,35.726460 
	C23.889965,29.556541 26.883450,26.318842 32.989510,26.252348 
	C48.145451,26.087309 63.305927,26.077084 78.461433,26.262325 
	C84.553986,26.336792 87.421623,29.538841 87.647301,35.728813 
	C87.792862,39.721447 87.689903,43.722916 87.711685,47.720352 
	C87.733490,51.721611 89.764587,54.100765 93.740875,54.116100 
	C97.740524,54.131523 99.779686,51.593758 99.949364,47.736759 
	C100.117584,43.912750 100.047798,40.076252 100.015427,36.245796 
	C99.898735,22.437763 91.393539,13.974838 77.493553,13.924657 
	C63.002182,13.872340 48.510349,13.874152 34.018955,13.923543 
	C19.900152,13.971663 11.324827,22.491863 11.297457,36.651676 
	C11.236283,68.299797 11.245628,99.948166 11.293311,131.596344 
	C11.314952,145.959305 19.940746,154.619904 34.288326,154.702515 
	C48.612846,154.785004 62.946609,154.995636 77.258232,154.558228 
	C81.729347,154.421570 86.141693,152.362152 91.157982,150.728424 
M128.781387,90.320511 
	C128.966843,91.056961 129.560104,92.116806 129.273163,92.478661 
	C127.002449,95.342125 124.511421,98.029442 122.191910,100.856087 
	C119.840790,103.721252 119.787018,106.870453 122.484962,109.331253 
	C125.319016,111.916183 128.666916,111.842751 131.376633,108.911049 
	C137.468826,102.319794 143.462692,95.636459 149.426178,88.928017 
	C152.165833,85.846123 152.123398,82.690849 149.295364,79.580910 
	C143.366776,73.061340 137.504425,66.481453 131.561584,59.975010 
	C128.982346,57.151165 125.844391,56.183178 122.803322,58.956833 
	C119.757736,61.734604 119.751740,64.999382 122.592957,68.178162 
	C125.286797,71.192062 127.892693,74.284569 131.102554,77.996155 
	C109.017982,77.996155 87.920372,77.995255 66.822762,77.996887 
	C62.330013,77.997238 57.827812,77.826057 53.347034,78.060310 
	C48.328518,78.322670 45.479729,82.301285 47.107216,86.593552 
	C48.499447,90.265350 51.778732,90.313789 55.025288,90.312325 
	C79.319687,90.301369 103.614098,90.307777 128.781387,90.320511 
z"/>
<path fill="#F8F7F7" opacity="1.000000" stroke="none" 
	d="
M90.869461,150.955658 
	C86.141693,152.362152 81.729347,154.421570 77.258232,154.558228 
	C62.946609,154.995636 48.612846,154.785004 34.288326,154.702515 
	C19.940746,154.619904 11.314952,145.959305 11.293311,131.596344 
	C11.245628,99.948166 11.236283,68.299797 11.297457,36.651676 
	C11.324827,22.491863 19.900152,13.971663 34.018955,13.923543 
	C48.510349,13.874152 63.002182,13.872340 77.493553,13.924657 
	C91.393539,13.974838 99.898735,22.437763 100.015427,36.245796 
	C100.047798,40.076252 100.117584,43.912750 99.949364,47.736759 
	C99.779686,51.593758 97.740524,54.131523 93.740875,54.116100 
	C89.764587,54.100765 87.733490,51.721611 87.711685,47.720352 
	C87.689903,43.722916 87.792862,39.721447 87.647301,35.728813 
	C87.421623,29.538841 84.553986,26.336792 78.461433,26.262325 
	C63.305927,26.077084 48.145451,26.087309 32.989510,26.252348 
	C26.883450,26.318842 23.889965,29.556541 23.879232,35.726460 
	C23.823019,68.040878 23.821220,100.355507 23.880821,132.669922 
	C23.892902,139.220520 26.818573,142.084671 33.425426,142.120682 
	C48.249683,142.201492 63.075005,142.202591 77.899239,142.119583 
	C84.646423,142.081802 87.466370,139.146484 87.659027,132.267532 
	C87.775551,128.107086 87.154762,123.812828 88.024757,119.832108 
	C88.493416,117.687737 91.310341,114.732094 93.241486,114.595322 
	C95.270973,114.451576 99.322456,117.205963 99.349068,118.748100 
	C99.484863,126.618752 99.189430,134.612778 97.792007,142.336975 
	C97.231918,145.432861 93.465164,147.948608 90.869461,150.955658 
z"/>
<path fill="#FCFCFC" opacity="1.000000" stroke="none" 
	d="
M128.344940,90.314629 
	C103.614098,90.307777 79.319687,90.301369 55.025288,90.312325 
	C51.778732,90.313789 48.499447,90.265350 47.107216,86.593552 
	C45.479729,82.301285 48.328518,78.322670 53.347034,78.060310 
	C57.827812,77.826057 62.330013,77.997238 66.822762,77.996887 
	C87.920372,77.995255 109.017982,77.996155 131.102554,77.996155 
	C127.892693,74.284569 125.286797,71.192062 122.592957,68.178162 
	C119.751740,64.999382 119.757736,61.734604 122.803322,58.956833 
	C125.844391,56.183178 128.982346,57.151165 131.561584,59.975010 
	C137.504425,66.481453 143.366776,73.061340 149.295364,79.580910 
	C152.123398,82.690849 152.165833,85.846123 149.426178,88.928017 
	C143.462692,95.636459 137.468826,102.319794 131.376633,108.911049 
	C128.666916,111.842751 125.319016,111.916183 122.484962,109.331253 
	C119.787018,106.870453 119.840790,103.721252 122.191910,100.856087 
	C124.511421,98.029442 127.002449,95.342125 129.273163,92.478661 
	C129.560104,92.116806 128.966843,91.056961 128.344940,90.314629 
z"/>
</svg>