<svg version="1.1" id="Layer_1" xmlns="http://www.w3.org/2000/svg" xmlns:xlink="http://www.w3.org/1999/xlink" x="0px" y="0px"
	 width="100%" viewBox="0 0 255 168" enable-background="new 0 0 255 168" xml:space="preserve">
<path fill="#272424" opacity="1.000000" stroke="none" 
	d="
M163.000000,169.000000 
	C108.666672,169.000000 54.833340,169.000000 1.000007,169.000000 
	C1.000005,113.000008 1.000005,57.000011 1.000002,1.000015 
	C85.999992,1.000010 170.999985,1.000010 255.999969,1.000005 
	C255.999985,56.999985 255.999985,112.999969 256.000000,168.999969 
	C225.166672,169.000000 194.333328,169.000000 163.000000,169.000000 
M231.230530,107.500107 
	C231.230453,84.009308 231.245819,60.518501 231.223892,37.027729 
	C231.212723,25.055130 225.820938,19.716600 213.716660,19.713825 
	C153.573242,19.700039 93.429817,19.700958 33.286396,19.711668 
	C21.074015,19.713842 15.727023,25.121460 15.721942,37.445499 
	C15.709440,67.767113 16.103338,98.096016 15.530578,128.406799 
	C15.297344,140.749603 22.331337,147.565186 34.684662,147.497284 
	C93.660088,147.173111 152.638275,147.352417 211.615479,147.349701 
	C213.281052,147.349625 214.952026,147.396820 216.611267,147.285004 
	C225.194534,146.706604 231.078995,140.606827 231.200256,131.990707 
	C231.310440,124.161919 231.228027,116.330421 231.230530,107.500107 
z"/>
<path fill="#FDFCFC" opacity="1.000000" stroke="none" 
	d="
M231.230530,108.000107 
	C231.228027,116.330421 231.310440,124.161919 231.200256,131.990707 
	C231.078995,140.606827 225.194534,146.706604 216.611267,147.285004 
	C214.952026,147.396820 213.281052,147.349625 211.615479,147.349701 
	C152.638275,147.352417 93.660088,147.173111 34.684662,147.497284 
	C22.331337,147.565186 15.297344,140.749603 15.530578,128.406799 
	C16.103338,98.096016 15.709440,67.767113 15.721942,37.445499 
	C15.727023,25.121460 21.074015,19.713842 33.286396,19.711668 
	C93.429817,19.700958 153.573242,19.700039 213.716660,19.713825 
	C225.820938,19.716600 231.212723,25.055130 231.223892,37.027729 
	C231.245819,60.518501 231.230453,84.009308 231.230530,108.000107 
M81.499886,115.230286 
	C88.904350,115.230286 96.308807,115.230286 103.588409,115.230286 
	C104.632011,108.297005 102.309052,103.286804 98.115700,99.490150 
	C85.607140,88.164955 59.137039,87.961876 46.475952,98.947525 
	C41.684891,103.104568 39.369801,108.357071 40.903530,115.230324 
	C54.237240,115.230324 67.368568,115.230324 81.499886,115.230286 
M170.500214,78.417732 
	C157.859573,78.417763 145.218857,78.399811 132.578339,78.437935 
	C130.760330,78.443420 128.699554,78.239761 127.194191,79.004761 
	C125.694229,79.767014 123.750565,81.675674 123.815361,82.992424 
	C123.898560,84.683159 125.488647,86.712471 127.003494,87.786072 
	C128.161255,88.606598 130.210373,88.274086 131.863174,88.275673 
	C155.647552,88.298584 179.431961,88.299675 203.216324,88.272575 
	C204.862488,88.270699 206.892563,88.549454 208.059082,87.726578 
	C209.587082,86.648705 211.242004,84.639122 211.314423,82.964241 
	C211.371460,81.645248 209.353043,79.754227 207.820892,78.985458 
	C206.311249,78.227989 204.254166,78.444450 202.436493,78.437347 
	C192.124527,78.397049 181.812347,78.417862 170.500214,78.417732 
M187.498795,115.283028 
	C193.494461,115.278610 199.490494,115.233284 205.485657,115.286140 
	C208.735794,115.314804 211.338211,114.123573 211.556335,110.743210 
	C211.792786,107.078766 209.093796,105.606079 205.769577,105.263245 
	C204.780060,105.161186 203.772705,105.224579 202.773529,105.224518 
	C179.290451,105.223137 155.807327,105.205826 132.324341,105.255524 
	C130.357269,105.259689 128.069565,105.184395 126.519501,106.120644 
	C125.109833,106.972107 123.550972,109.314453 123.788750,110.703239 
	C124.068314,112.336136 125.984230,114.065781 127.622902,114.969276 
	C128.923508,115.686371 130.875259,115.273788 132.537949,115.274963 
	C150.524994,115.287613 168.512039,115.282867 187.498795,115.283028 
M132.784439,51.366703 
	C130.960754,51.483940 128.734329,50.995129 127.415276,51.871723 
	C125.764076,52.969025 123.973213,55.160126 123.917564,56.931690 
	C123.874931,58.289009 126.257675,60.001801 127.893372,61.027649 
	C128.872559,61.641773 130.490143,61.284252 131.820816,61.284782 
	C155.649673,61.294235 179.478531,61.294514 203.307388,61.284023 
	C204.637009,61.283440 206.258942,61.630596 207.230515,61.010315 
	C208.857178,59.971809 211.233612,58.225559 211.166916,56.882877 
	C211.079254,55.118309 209.238739,52.981266 207.571289,51.899799 
	C206.231812,51.031059 204.028442,51.385326 202.208221,51.383312 
	C179.379211,51.358051 156.550140,51.366760 132.784439,51.366703 
M82.647881,55.882629 
	C81.570831,55.109634 80.544022,54.252102 79.408577,53.577370 
	C72.032028,49.193932 62.911358,51.888950 59.078728,59.549286 
	C55.178776,67.344177 58.652370,76.727257 66.593620,79.848938 
	C72.724800,82.259087 79.546638,80.441231 83.635941,75.307587 
	C87.867676,69.995132 87.712517,63.361515 82.647881,55.882629 
z"/>
<path fill="#2A2626" opacity="1.000000" stroke="none" 
	d="
M80.999893,115.230301 
	C67.368568,115.230324 54.237240,115.230324 40.903530,115.230324 
	C39.369801,108.357071 41.684891,103.104568 46.475952,98.947525 
	C59.137039,87.961876 85.607140,88.164955 98.115700,99.490150 
	C102.309052,103.286804 104.632011,108.297005 103.588409,115.230286 
	C96.308807,115.230286 88.904350,115.230286 80.999893,115.230301 
z"/>
<path fill="#333030" opacity="1.000000" stroke="none" 
	d="
M171.000214,78.417801 
	C181.812347,78.417862 192.124527,78.397049 202.436493,78.437347 
	C204.254166,78.444450 206.311249,78.227989 207.820892,78.985458 
	C209.353043,79.754227 211.371460,81.645248 211.314423,82.964241 
	C211.242004,84.639122 209.587082,86.648705 208.059082,87.726578 
	C206.892563,88.549454 204.862488,88.270699 203.216324,88.272575 
	C179.431961,88.299675 155.647552,88.298584 131.863174,88.275673 
	C130.210373,88.274086 128.161255,88.606598 127.003494,87.786072 
	C125.488647,86.712471 123.898560,84.683159 123.815361,82.992424 
	C123.750565,81.675674 125.694229,79.767014 127.194191,79.004761 
	C128.699554,78.239761 130.760330,78.443420 132.578339,78.437935 
	C145.218857,78.399811 157.859573,78.417763 171.000214,78.417801 
z"/>
<path fill="#322E2E" opacity="1.000000" stroke="none" 
	d="
M186.998932,115.282951 
	C168.512039,115.282867 150.524994,115.287613 132.537949,115.274963 
	C130.875259,115.273788 128.923508,115.686371 127.622902,114.969276 
	C125.984230,114.065781 124.068314,112.336136 123.788750,110.703239 
	C123.550972,109.314453 125.109833,106.972107 126.519501,106.120644 
	C128.069565,105.184395 130.357269,105.259689 132.324341,105.255524 
	C155.807327,105.205826 179.290451,105.223137 202.773529,105.224518 
	C203.772705,105.224579 204.780060,105.161186 205.769577,105.263245 
	C209.093796,105.606079 211.792786,107.078766 211.556335,110.743210 
	C211.338211,114.123573 208.735794,115.314804 205.485657,115.286140 
	C199.490494,115.233284 193.494461,115.278610 186.998932,115.282951 
z"/>
<path fill="#2F2B2B" opacity="1.000000" stroke="none" 
	d="
M133.252777,51.366734 
	C156.550140,51.366760 179.379211,51.358051 202.208221,51.383312 
	C204.028442,51.385326 206.231812,51.031059 207.571289,51.899799 
	C209.238739,52.981266 211.079254,55.118309 211.166916,56.882877 
	C211.233612,58.225559 208.857178,59.971809 207.230515,61.010315 
	C206.258942,61.630596 204.637009,61.283440 203.307388,61.284023 
	C179.478531,61.294514 155.649673,61.294235 131.820816,61.284782 
	C130.490143,61.284252 128.872559,61.641773 127.893372,61.027649 
	C126.257675,60.001801 123.874931,58.289009 123.917564,56.931690 
	C123.973213,55.160126 125.764076,52.969025 127.415276,51.871723 
	C128.734329,50.995129 130.960754,51.483940 133.252777,51.366734 
z"/>
<path fill="#2B2828" opacity="1.000000" stroke="none" 
	d="
M82.920540,56.130306 
	C87.712517,63.361515 87.867676,69.995132 83.635941,75.307587 
	C79.546638,80.441231 72.724800,82.259087 66.593620,79.848938 
	C58.652370,76.727257 55.178776,67.344177 59.078728,59.549286 
	C62.911358,51.888950 72.032028,49.193932 79.408577,53.577370 
	C80.544022,54.252102 81.570831,55.109634 82.920540,56.130306 
z"/>
</svg>