<svg version="1.1" id="Layer_1" xmlns="http://www.w3.org/2000/svg" xmlns:xlink="http://www.w3.org/1999/xlink" x="0px" y="0px"
	 width="100%" viewBox="0 0 171 123" enable-background="new 0 0 171 123" xml:space="preserve">
<path fill="#272323" opacity="1.000000" stroke="none" 
	d="
M107.000000,124.000000 
	C71.363258,124.000000 36.226517,124.000000 1.044889,124.000000 
	C1.044889,83.064857 1.044889,42.129654 1.044889,1.097224 
	C57.886532,1.097224 114.773285,1.097224 171.830017,1.097224 
	C171.830017,41.999432 171.830017,82.999649 171.830017,124.000000 
	C150.463364,124.000000 128.981689,124.000000 107.000000,124.000000 
M160.149673,76.499344 
	C160.149628,60.010696 160.167160,43.522022 160.142715,27.033411 
	C160.128952,17.755123 156.424362,14.081758 147.067978,14.078624 
	C105.929459,14.064845 64.790932,14.062711 23.652426,14.079728 
	C14.598741,14.083473 10.882665,17.793079 10.871943,26.816599 
	C10.847600,47.302551 10.861618,67.788551 10.865209,88.274536 
	C10.867164,99.422585 13.868778,102.387772 25.179430,102.389038 
	C65.318634,102.393555 105.457840,102.391380 145.597046,102.387718 
	C147.095428,102.387581 148.600876,102.431046 150.090973,102.308105 
	C156.183823,101.805435 159.900528,98.064392 160.104233,91.987801 
	C160.265961,87.163055 160.145081,82.328835 160.149673,76.499344 
z"/>
<path fill="#FCFCFC" opacity="1.000000" stroke="none" 
	d="
M160.149673,76.999084 
	C160.145081,82.328835 160.265961,87.163055 160.104233,91.987801 
	C159.900528,98.064392 156.183823,101.805435 150.090973,102.308105 
	C148.600876,102.431046 147.095428,102.387581 145.597046,102.387718 
	C105.457840,102.391380 65.318634,102.393555 25.179430,102.389038 
	C13.868778,102.387772 10.867164,99.422585 10.865209,88.274536 
	C10.861618,67.788551 10.847600,47.302551 10.871943,26.816599 
	C10.882665,17.793079 14.598741,14.083473 23.652426,14.079728 
	C64.790932,14.062711 105.929459,14.064845 147.067978,14.078624 
	C156.424362,14.081758 160.128952,17.755123 160.142715,27.033411 
	C160.167160,43.522022 160.149628,60.010696 160.149673,76.999084 
M59.487305,80.207550 
	C63.580479,80.207550 67.673653,80.207550 71.761818,80.207550 
	C72.398293,72.751678 68.571617,68.768639 63.064686,66.355614 
	C52.789429,61.853226 42.556816,62.168697 33.067631,68.464943 
	C29.214693,71.021431 27.010071,74.887909 28.372040,80.207458 
	C38.541969,80.207458 48.516247,80.207458 59.487305,80.207550 
M134.382614,54.772373 
	C119.884552,54.772896 105.384499,54.661282 90.890991,54.918373 
	C89.114799,54.949883 86.110115,56.726105 85.861862,58.091457 
	C85.212624,61.662155 88.422142,61.651016 90.946854,61.659592 
	C101.611977,61.695816 112.277290,61.677364 122.942535,61.675274 
	C129.274979,61.674030 135.620941,61.888226 141.930328,61.504433 
	C143.502396,61.408802 144.956436,59.372955 146.464706,58.228878 
	C144.922485,57.080399 143.528931,55.420280 141.799057,54.917664 
	C139.800369,54.336948 137.505341,54.776112 134.382614,54.772373 
M145.534805,74.652603 
	C143.475586,74.213921 141.419235,73.411530 139.356674,73.395172 
	C125.238960,73.283127 111.119957,73.333130 97.001366,73.338341 
	C94.510429,73.339264 91.902626,72.933914 89.570190,73.551872 
	C88.046471,73.955574 86.922226,75.867035 85.619049,77.103127 
	C87.023117,78.148048 88.416519,80.085304 89.832863,80.102219 
	C107.270912,80.310455 124.712318,80.249687 142.152817,80.227921 
	C145.473206,80.223778 147.305542,78.935135 145.534805,74.652603 
M93.725082,36.094193 
	C93.392265,36.094196 93.057991,36.073776 92.726860,36.097420 
	C89.885796,36.300285 85.825050,35.209690 85.788467,39.601574 
	C85.751045,44.095543 89.865143,43.051186 92.668541,43.064854 
	C107.478554,43.137051 122.289093,43.102406 137.099457,43.094387 
	C139.094864,43.093304 141.199402,43.409294 143.048355,42.872360 
	C144.343643,42.496216 146.330032,40.695473 146.165039,39.926109 
	C145.866760,38.535118 144.380646,37.112000 143.027878,36.328186 
	C142.014923,35.741257 140.432770,36.101055 139.104019,36.100258 
	C124.293655,36.091393 109.483299,36.094395 93.725082,36.094193 
M59.722672,48.869617 
	C60.265736,41.633297 57.440262,37.335613 51.460358,36.302254 
	C46.485237,35.442528 41.444744,38.782459 40.134983,43.806667 
	C38.827011,48.824001 41.505257,54.085651 46.299881,55.918175 
	C51.776417,58.011330 56.508675,55.750359 59.722672,48.869617 
z"/>
<path fill="#292525" opacity="1.000000" stroke="none" 
	d="
M58.988914,80.207504 
	C48.516247,80.207458 38.541969,80.207458 28.372040,80.207458 
	C27.010071,74.887909 29.214693,71.021431 33.067631,68.464943 
	C42.556816,62.168697 52.789429,61.853226 63.064686,66.355614 
	C68.571617,68.768639 72.398293,72.751678 71.761818,80.207550 
	C67.673653,80.207550 63.580479,80.207550 58.988914,80.207504 
z"/>
<path fill="#363232" opacity="1.000000" stroke="none" 
	d="
M134.860809,54.772411 
	C137.505341,54.776112 139.800369,54.336948 141.799057,54.917664 
	C143.528931,55.420280 144.922485,57.080399 146.464706,58.228882 
	C144.956436,59.372955 143.502396,61.408802 141.930328,61.504433 
	C135.620941,61.888226 129.274979,61.674030 122.942535,61.675274 
	C112.277290,61.677364 101.611977,61.695816 90.946854,61.659592 
	C88.422142,61.651016 85.212624,61.662155 85.861862,58.091457 
	C86.110115,56.726105 89.114799,54.949883 90.890991,54.918373 
	C105.384499,54.661282 119.884552,54.772896 134.860809,54.772411 
z"/>
<path fill="#343131" opacity="1.000000" stroke="none" 
	d="
M145.765503,74.963684 
	C147.305542,78.935135 145.473206,80.223778 142.152817,80.227921 
	C124.712318,80.249687 107.270912,80.310455 89.832863,80.102219 
	C88.416519,80.085304 87.023117,78.148048 85.619049,77.103127 
	C86.922226,75.867035 88.046471,73.955574 89.570190,73.551872 
	C91.902626,72.933914 94.510429,73.339264 97.001366,73.338341 
	C111.119957,73.333130 125.238960,73.283127 139.356674,73.395172 
	C141.419235,73.411530 143.475586,74.213921 145.765503,74.963684 
z"/>
<path fill="#312D2D" opacity="1.000000" stroke="none" 
	d="
M94.199005,36.094193 
	C109.483299,36.094395 124.293655,36.091393 139.104019,36.100258 
	C140.432770,36.101055 142.014923,35.741257 143.027878,36.328186 
	C144.380646,37.112000 145.866760,38.535118 146.165039,39.926109 
	C146.330032,40.695473 144.343643,42.496216 143.048355,42.872360 
	C141.199402,43.409294 139.094864,43.093304 137.099457,43.094387 
	C122.289093,43.102406 107.478554,43.137051 92.668541,43.064854 
	C89.865143,43.051186 85.751045,44.095543 85.788467,39.601574 
	C85.825050,35.209690 89.885796,36.300285 92.726860,36.097420 
	C93.057991,36.073776 93.392265,36.094196 94.199005,36.094193 
z"/>
<path fill="#2D2929" opacity="1.000000" stroke="none" 
	d="
M59.600319,49.245796 
	C56.508675,55.750359 51.776417,58.011330 46.299881,55.918175 
	C41.505257,54.085651 38.827011,48.824001 40.134983,43.806667 
	C41.444744,38.782459 46.485237,35.442528 51.460358,36.302254 
	C57.440262,37.335613 60.265736,41.633297 59.600319,49.245796 
z"/>
</svg>